<?xml version="1.0" encoding="utf-8"?>
<!-- Generator: Adobe Illustrator 19.1.1, SVG Export Plug-In . SVG Version: 6.00 Build 0)  -->
<svg version="1.1" id="Layer_1" xmlns:sketch="http://www.bohemiancoding.com/sketch/ns"
	 xmlns="http://www.w3.org/2000/svg" xmlns:xlink="http://www.w3.org/1999/xlink" x="0px" y="0px" viewBox="-280 372 50 50"
	 style="enable-background:new -280 372 50 50;" xml:space="preserve">
<style type="text/css">
	.st0{fill:none;}
</style>
<g sketch:type="MSPage">
	<g sketch:type="MSLayerGroup">
		<path sketch:type="MSShapeGroup" class="st0" d="M-249.6,419.1h-10.8c-2.6,0-4.7-2.1-4.7-4.7v-15c0-2.9,0.7-5.9,2-8.5l0.6-1.3
			c1.2-2.4,1.8-5.1,1.8-7.8V378h11.3v3.9c0,2.7,0.6,5.4,1.8,7.8l0.6,1.3c1.3,2.6,2,5.6,2,8.5v15C-244.9,417-247,419.1-249.6,419.1
			L-249.6,419.1z M-259.1,379.4v2.4c0,2.9-0.7,5.9-2,8.5l-0.6,1.3c-1.2,2.4-1.8,5.1-1.8,7.8v15c0,1.8,1.4,3.2,3.2,3.2h10.8
			c1.8,0,3.2-1.4,3.2-3.2v-15c0-2.7-0.6-5.4-1.8-7.8l-0.6-1.3c-1.3-2.6-2-5.6-2-8.5v-2.4H-259.1L-259.1,379.4z"/>
		<path sketch:type="MSShapeGroup" class="st0" d="M-262.9,374.9h15.8v4.5h-15.8V374.9z M-261.4,377.9h12.8v-1.5h-12.8V377.9z"/>
	</g>
</g>
</svg>
