<svg xmlns="http://www.w3.org/2000/svg" xmlns:xlink="http://www.w3.org/1999/xlink" xmlns:sketch="http://www.bohemiancoding.com/sketch/ns" viewBox="0 0 27 73.75" version="1.1" x="0px" y="0px"><title>food-26</title><desc>Created with Sketch.</desc><g stroke="none" stroke-width="1" fill="none" fill-rule="evenodd" sketch:type="MSPage"><g sketch:type="MSLayerGroup" fill="#000000"><path d="M20.7,59 L6.3,59 C2.826,59 0,56.174 0,52.7 L0,32.748 C0,28.833 0.926,24.913 2.676,21.411 L3.535,19.694 C5.148,16.469 6,12.858 6,9.252 L6,4 L21,4 L21,9.252 C21,12.858 21.852,16.469 23.465,19.694 L24.324,21.411 C26.074,24.913 27,28.833 27,32.748 L27,52.7 C27,56.174 24.174,59 20.7,59 L20.7,59 Z M8,6 L8,9.252 C8,13.167 7.074,17.087 5.324,20.589 L4.465,22.306 C2.852,25.531 2,29.142 2,32.748 L2,52.7 C2,55.071 3.929,57 6.3,57 L20.7,57 C23.071,57 25,55.071 25,52.7 L25,32.748 C25,29.142 24.147,25.531 22.535,22.306 L21.676,20.589 C19.926,17.087 19,13.167 19,9.252 L19,6 L8,6 L8,6 Z" sketch:type="MSShapeGroup"/><path d="M3,0 L24,0 L24,6 L3,6 L3,0 Z M5,4 L22,4 L22,2 L5,2 L5,4 Z" sketch:type="MSShapeGroup"/></g></g><text x="0" y="74" fill="#000000" font-size="5px" font-weight="bold" font-family="'Helvetica Neue', Helvetica, Arial-Unicode, Arial, Sans-serif">Created by retinaicon</text><text x="0" y="79" fill="#000000" font-size="5px" font-weight="bold" font-family="'Helvetica Neue', Helvetica, Arial-Unicode, Arial, Sans-serif">from the Noun Project</text></svg>