<?xml version="1.0" encoding="utf-8"?>
<!-- Generator: Adobe Illustrator 19.1.1, SVG Export Plug-In . SVG Version: 6.00 Build 0)  -->
<svg version="1.1" id="Layer_1" xmlns="http://www.w3.org/2000/svg" xmlns:xlink="http://www.w3.org/1999/xlink" x="0px" y="0px"
	 viewBox="-230 371.5 50 50" style="enable-background:new -230 371.5 50 50;" xml:space="preserve">
<g>
	<g>
		<path d="M-222.7,395.2c-0.1,0.3,0,0.6,0.2,0.9c0.7,0.9,2.2,0.1,1.9-1C-220.9,394.1-222.5,394.1-222.7,395.2z M-222.2,395.9
			c-0.4-0.5-0.1-1.1,0.5-1.2c0.4,0,0.7,0.2,0.8,0.5C-220.8,396-221.7,396.5-222.2,395.9z"/>
		<path d="M-210.6,396.1c-0.2,1.4,1.8,1.7,2.1,0.4C-208.1,395-210.4,394.6-210.6,396.1z M-208.8,396.4c-0.1,0.6-0.9,0.8-1.3,0.3
			c-0.5-0.6,0.2-1.5,0.9-1.1C-208.9,395.8-208.7,396.1-208.8,396.4z"/>
		<path d="M-182.6,381.6c-0.8-0.5-2.3-1.4-3.2-1.4c-1.4,0-2.4,1-2.4,2.3c0,0.6,0.2,1.1,0.4,1.7c1.1,2.6,0.2,3.9-1.6,4.2
			c-0.5-0.4-4.5-5.7-11.7-4.7c-1.6-0.6-3.5-0.7-5,0.2c-0.3-1.5-1.2-2.9-2.4-4.3c-0.1-0.1-0.3-0.1-0.3,0.1c-0.2,1-0.6,2-1.1,3.1
			c-1.5-0.6-3.3-0.8-4.9-0.4c-0.3-0.9-0.3-1.9-0.3-2.7c0-0.1-0.2-0.2-0.3-0.1c-1.5,1-2.6,2.1-3.1,3.6c-2.4-0.7-4.5-0.4-6.2,0.6
			c-0.1,0-0.1,0.2-0.1,0.2c0.7,1.4,2.4,2.3,4.5,2.6c-1.8,2.7-2.6,5.7-2.9,7c-5.8,2.4-4.9,8.3-2.7,10.8c1.9,2.1,6.7,3.1,10.3,3.4
			c0.1,2,0.5,2.5,0.7,3c0,0,0,0,0,0.1c0.9,1.7,3,1.8,3.9,0.2c0,0,0,0,0,0c0-0.6,0.4-1.3,0.6-2c0.9,0.4,2.1,0.6,3.4,0.7
			c0.8,5,4.7,5.7,5.7-0.4c0.2,0,0.4-0.1,0.6-0.1c-0.2,3,2.1,3.1,2.9,1.6c0.1-0.1,0.3-0.7,0.4-0.9c0.7,0.3,1.4,0.4,2.2,0.4
			c1.3,2.5,3.4,2.3,4.5,0.4c1.7-2.3,6.5-13.3,2.4-20.8c4-1.3,2-5,1.8-6.2c1,0.2,3.4,0.2,4.2-1.8
			C-182.3,381.8-182.5,381.7-182.6,381.6z M-208.6,380.1c1.1,1.3,1.8,2.7,2.1,4c-0.2,0.2-0.4,0.3-0.6,0.5c-0.8-0.7-1.7-1.3-2.6-1.7
			C-209.1,382-208.8,381-208.6,380.1z M-215.5,380c0,0.7,0.1,1.6,0.3,2.5c-0.8,0.2-1.6,0.6-2.3,1.1c-0.3-0.1-0.5-0.2-0.8-0.3
			C-217.7,381.9-216.8,380.9-215.5,380z M-221.4,389.1c0.3,0.2,1,0.3,1.6,0.3c4.4,0,8.7-5.4,7.8-6.8c1.9,0.2,3.5,1.1,4.9,2.4
			c0.1,0.1,0.2,0.1,0.3,0c1.9-2,5.3-1.6,7.2-0.1c-1.4,1.3-3.8,1.9-5.9,1.5c-0.2,0-0.3,0.1-0.2,0.3c1.6,2.4,2.5,5.9,2,9.8
			c-1.3-1.3-3.2-2.3-5.3-3c0.1-0.5,0.1-1,0.1-1.5c-0.3,0.2-0.6,0-0.6-0.3c0-0.3,0.3-0.5,0.6-0.3c-0.3-3.1-1.4-1.3-1.1,1.9
			c-2.7-0.7-5.9-1-8.8-0.6c0.1-0.4,0.2-0.7,0.3-1.1c-0.3,0.2-0.6,0-0.6-0.3c0-0.4,0.4-0.5,0.7-0.2c0.4-2.6-1.3-0.7-1.6,1.8
			c-0.9,0.2-1.9,0.4-2.8,0.7C-222.6,392.5-222.2,390.9-221.4,389.1z M-211.3,410.8c-1-0.6-2.3-0.6-3.4-0.2c-0.4-0.8-0.5-1.9-0.6-2.7
			c1.3,0.1,2.1,0.1,3,0.1c0.4,0.4,0.9,0.7,1.5,1C-210.9,409.7-211.1,410.3-211.3,410.8z M-211.8,407.9c1.6-0.1,3.2-0.3,4.7-0.8
			c0,0.7-0.1,1.3,0.1,2.2C-209.2,409.3-210.8,408.8-211.8,407.9z M-225.7,404.2c-2.7-3.1-3.3-11.4,9.2-11.4c5,0,14.4,1.8,14.4,8.5
			C-202.1,410.1-221.9,408.4-225.7,404.2z M-197.9,410.6c-0.7-0.3-1.7-0.3-2.3,0.1c-0.2-0.5-0.1-0.9-0.1-1.4
			c0.4-0.1,0.9-0.2,1.4-0.3c0.4,0.4,0.8,0.7,1.3,0.9C-197.8,410.1-197.9,410.4-197.9,410.6z M-198.5,408.9c0.8-0.2,1.7-0.4,2.5-0.7
			c0.2,0.7,0.4,1.3,0.6,1.9C-196.5,410.1-197.7,409.6-198.5,408.9z M-187.5,401.2c-0.7,3.5-2,7.4-3.4,9.4c-1.1-0.2-2.3,0-3.2,0.8
			c-1.5-1.4-1.9-5-1.9-7.1c0-0.1-0.1-0.2-0.2-0.2s-0.2,0.1-0.2,0.2c0,1,0.1,2.3,0.3,3.6c-1.7,0.6-3.7,1-5.1,1.2
			c0.1-0.8,0.2-1.4,0.2-1.9c0-0.2,0-0.5-0.2-0.5c-0.2,0-0.2,0.3-0.2,0.5c0,0.8-0.2,3.2-1,4.7c-0.9-0.4-2.7-0.6-3.6,0.1
			c-0.9-1.6-0.9-3.4-0.8-4.9c3.1-1,5.3-3,5-6.4c5.4-1.2,3.6-13.4,1.4-14.9c0.2-0.1,1.1-0.7,1.1-0.9c0-0.2-1-0.8-1.2-0.9
			c0.7-0.1,1.6-0.1,2.6,0.1c5.9,5.1,3.1,17.7,8.5,17.7C-188.6,401.8-187.9,401.6-187.5,401.2z M-186.9,383.7
			c0.2,1.4,2.1,4.4-1.1,5.8c0-0.4-0.3-0.8-0.6-1c1.9-0.8,2-2.5,1.1-4.5c-0.2-0.5-0.4-1-0.4-1.5c0-1.1,0.9-2,2-2c0.8,0,2.3,0.9,3,1.4
			l0.1,0.1C-183.9,384.6-187.5,383-186.9,383.7z"/>
	</g>
	<path d="M-213.3,411.9c0.1,0,0.3,0,0.4,0c0.4,0,0.8-0.1,1.1-0.3"/>
</g>
</svg>
