<?xml version="1.0" encoding="utf-8"?>
<!-- Generator: Adobe Illustrator 19.1.1, SVG Export Plug-In . SVG Version: 6.00 Build 0)  -->
<svg version="1.1" id="Layer_1" xmlns="http://www.w3.org/2000/svg" xmlns:xlink="http://www.w3.org/1999/xlink" x="0px" y="0px"
	 viewBox="-217.5 384 25 25" style="enable-background:new -217.5 384 25 25;" xml:space="preserve">
<style type="text/css">
	.st0{fill:#FFFFFF;}
</style>
<rect x="-217.5" y="384" class="st0" width="25" height="25"/>
<g>
	<g>
		<path d="M-213.9,395.4c0,0.2,0,0.3,0.1,0.4c0.4,0.4,1.1,0.1,0.9-0.5C-213,394.8-213.8,394.9-213.9,395.4z M-213.6,395.7
			c-0.2-0.2,0-0.6,0.3-0.6c0.2,0,0.3,0.1,0.4,0.3C-212.9,395.8-213.4,396-213.6,395.7z"/>
		<path d="M-207.8,395.9c-0.1,0.7,0.9,0.9,1.1,0.2C-206.6,395.3-207.7,395.1-207.8,395.9z M-206.9,396c-0.1,0.3-0.4,0.4-0.6,0.2
			c-0.3-0.3,0.1-0.8,0.4-0.6C-206.9,395.7-206.9,395.8-206.9,396z"/>
		<path d="M-193.8,388.6c-0.4-0.2-1.2-0.7-1.6-0.7c-0.7,0-1.2,0.5-1.2,1.2c0,0.3,0.1,0.6,0.2,0.8c0.6,1.3,0.1,2-0.8,2.1
			c-0.3-0.2-2.2-2.9-5.9-2.3c-0.8-0.3-1.8-0.3-2.5,0.1c-0.2-0.7-0.6-1.5-1.2-2.1c0-0.1-0.1,0-0.2,0c-0.1,0.5-0.3,1-0.6,1.5
			c-0.8-0.3-1.7-0.4-2.5-0.2c-0.1-0.5-0.2-1-0.2-1.3c0-0.1-0.1-0.1-0.1-0.1c-0.8,0.5-1.3,1.1-1.6,1.8c-1.2-0.3-2.3-0.2-3.1,0.3
			c0,0-0.1,0.1,0,0.1c0.4,0.7,1.2,1.2,2.3,1.3c-0.9,1.3-1.3,2.9-1.4,3.5c-2.9,1.2-2.5,4.1-1.4,5.4c0.9,1.1,3.4,1.6,5.1,1.7
			c0,1,0.2,1.2,0.3,1.5c0,0,0,0,0,0c0.5,0.8,1.5,0.9,2,0.1c0,0,0,0,0,0c0-0.3,0.2-0.7,0.3-1c0.5,0.2,1,0.3,1.7,0.3
			c0.4,2.5,2.3,2.9,2.9-0.2c0.1,0,0.2,0,0.3,0c-0.1,1.5,1,1.5,1.5,0.8c0,0,0.2-0.4,0.2-0.4c0.3,0.1,0.7,0.2,1.1,0.2
			c0.6,1.2,1.7,1.1,2.2,0.2c0.8-1.2,3.2-6.6,1.2-10.4c2-0.7,1-2.5,0.9-3.1c0.5,0.1,1.7,0.1,2.1-0.9
			C-193.6,388.7-193.7,388.6-193.8,388.6z M-206.8,387.8c0.6,0.7,0.9,1.3,1.1,2c-0.1,0.1-0.2,0.2-0.3,0.3c-0.4-0.4-0.8-0.7-1.3-0.9
			C-207.1,388.8-206.9,388.3-206.8,387.8z M-210.3,387.8c0,0.4,0,0.8,0.2,1.2c-0.4,0.1-0.8,0.3-1.1,0.5c-0.1-0.1-0.3-0.1-0.4-0.1
			C-211.4,388.8-210.9,388.2-210.3,387.8z M-213.2,392.4c0.1,0.1,0.5,0.1,0.8,0.1c2.2,0,4.3-2.7,3.9-3.4c0.9,0.1,1.8,0.5,2.4,1.2
			c0,0,0.1,0,0.1,0c0.9-1,2.6-0.8,3.6,0c-0.7,0.6-1.9,1-3,0.7c-0.1,0-0.1,0.1-0.1,0.1c0.8,1.2,1.2,2.9,1,4.9
			c-0.7-0.7-1.6-1.1-2.6-1.5c0-0.3,0-0.5,0-0.8c-0.1,0.1-0.3,0-0.3-0.2c0-0.1,0.1-0.2,0.3-0.2c-0.1-1.5-0.7-0.7-0.5,0.9
			c-1.3-0.3-2.9-0.5-4.4-0.3c0.1-0.2,0.1-0.3,0.2-0.5c-0.1,0.1-0.3,0-0.3-0.2c0-0.2,0.2-0.3,0.3-0.1c0.2-1.3-0.6-0.3-0.8,0.9
			c-0.5,0.1-0.9,0.2-1.4,0.4C-213.8,394-213.6,393.2-213.2,392.4z M-208.2,403.2c-0.5-0.3-1.2-0.3-1.7-0.1c-0.2-0.4-0.3-0.9-0.3-1.3
			c0.6,0.1,1.1,0.1,1.5,0c0.2,0.2,0.5,0.4,0.8,0.5C-208,402.7-208,402.9-208.2,403.2z M-208.4,401.8c0.8,0,1.6-0.2,2.3-0.4
			c0,0.4,0,0.7,0,1.1C-207.1,402.4-207.9,402.2-208.4,401.8z M-215.3,399.9c-1.4-1.5-1.6-5.7,4.6-5.7c2.5,0,7.2,0.9,7.2,4.3
			C-203.6,402.8-213.5,402-215.3,399.9z M-201.5,403.1c-0.4-0.1-0.8-0.1-1.1,0.1c-0.1-0.2-0.1-0.5-0.1-0.7c0.2,0,0.4-0.1,0.7-0.1
			c0.2,0.2,0.4,0.3,0.6,0.5C-201.4,402.9-201.4,403-201.5,403.1z M-201.8,402.2c0.4-0.1,0.9-0.2,1.3-0.3c0.1,0.3,0.2,0.7,0.3,1
			C-200.8,402.8-201.4,402.6-201.8,402.2z M-196.3,398.4c-0.3,1.7-1,3.7-1.7,4.7c-0.6-0.1-1.2,0-1.6,0.4c-0.7-0.7-1-2.5-1-3.5
			c0,0,0-0.1-0.1-0.1c0,0-0.1,0-0.1,0.1c0,0.5,0,1.2,0.2,1.8c-0.9,0.3-1.9,0.5-2.6,0.6c0.1-0.4,0.1-0.7,0.1-0.9c0-0.1,0-0.3-0.1-0.3
			c-0.1,0-0.1,0.1-0.1,0.3c0,0.4-0.1,1.6-0.5,2.4c-0.5-0.2-1.3-0.3-1.8,0.1c-0.4-0.8-0.4-1.7-0.4-2.5c1.6-0.5,2.6-1.5,2.5-3.2
			c2.7-0.6,1.8-6.7,0.7-7.4c0.1-0.1,0.6-0.4,0.6-0.5c0-0.1-0.5-0.4-0.6-0.4c0.4,0,0.8,0,1.3,0c2.9,2.5,1.6,8.8,4.3,8.8
			C-196.8,398.7-196.5,398.6-196.3,398.4z M-196,389.6c0.1,0.7,1,2.2-0.5,2.9c0-0.2-0.1-0.4-0.3-0.5c1-0.4,1-1.3,0.6-2.3
			c-0.1-0.3-0.2-0.5-0.2-0.8c0-0.6,0.4-1,1-1c0.4,0,1.1,0.5,1.5,0.7l0,0C-194.5,390.1-196.3,389.3-196,389.6z"/>
	</g>
	<path d="M-209.2,403.7c0.1,0,0.1,0,0.2,0c0.2,0,0.4-0.1,0.6-0.2"/>
</g>
</svg>
