<svg xmlns="http://www.w3.org/2000/svg" xmlns:xlink="http://www.w3.org/1999/xlink" version="1.1" x="0px" y="0px" viewBox="0 0 100 125" enable-background="new 0 0 100 100" xml:space="preserve"><g><g><path d="M14.522,47.25c-0.118,0.632,0.05,1.277,0.459,1.77c1.486,1.79,4.372,0.266,3.734-1.966    C18.097,44.881,14.94,45.014,14.522,47.25z M15.52,48.573c-0.75-0.903-0.166-2.295,1.019-2.38    c0.787-0.026,1.331,0.445,1.504,1.054C18.474,48.757,16.524,49.779,15.52,48.573z"/><path d="M38.856,49.014c-0.365,2.746,3.694,3.455,4.289,0.756C43.785,46.862,39.254,46.021,38.856,49.014z M42.461,49.62    c-0.258,1.168-1.749,1.581-2.56,0.653c-1.063-1.212,0.34-3.033,1.793-2.286C42.29,48.293,42.605,48.965,42.461,49.62z"/><path d="M94.72,19.99c-1.623-0.996-4.643-2.851-6.407-2.851c-2.723,0-4.775,1.999-4.775,4.65c0,1.246,0.433,2.265,0.891,3.345    c2.234,5.262,0.368,7.874-3.178,8.462c-1-0.885-8.994-11.45-23.474-9.368c-3.114-1.2-7.028-1.323-9.973,0.391    c-0.695-2.915-2.317-5.804-4.848-8.594c-0.195-0.214-0.544-0.112-0.602,0.164c-0.42,1.998-1.196,4.051-2.291,6.106    c-3.028-1.165-6.641-1.548-9.841-0.803c-0.521-1.868-0.606-3.834-0.607-5.364c0-0.275-0.305-0.443-0.536-0.296    c-3.058,1.919-5.114,4.3-6.298,7.26c-4.732-1.338-9-0.711-12.413,1.155c-0.167,0.092-0.23,0.301-0.142,0.47    c1.469,2.801,4.742,4.675,9.032,5.191c-3.578,5.367-5.187,11.484-5.75,14.098C1.957,48.836,3.625,60.512,8.104,65.552    c3.75,4.219,13.467,6.215,20.586,6.893c0.118,3.924,0.968,4.951,1.302,5.951c0.019,0.051,0.05,0.094,0.086,0.129    c1.893,3.343,6.094,3.588,7.832,0.464C37.915,78.978,38,78.997,38,78.98c0-1.151,0.896-2.61,1.123-4.016    c1.882,0.728,4.12,1.176,6.848,1.343c1.583,9.934,9.339,11.411,11.464-0.734c0.392-0.059,0.802-0.124,1.23-0.194    c-0.354,5.968,4.171,6.18,5.859,3.213c0.179-0.169,0.64-1.496,0.714-1.749c1.32,0.547,2.805,0.879,4.32,0.813    c2.572,4.924,6.743,4.521,8.963,0.821c3.341-4.603,12.943-26.502,4.8-41.638c8.036-2.624,4.08-9.999,3.614-12.487    c2.009,0.45,6.718,0.391,8.335-3.685C95.407,20.327,95.037,20.185,94.72,19.99z M42.886,17.003c2.262,2.618,3.7,5.31,4.296,8.012    c-0.435,0.305-0.852,0.642-1.241,1.032c-1.562-1.499-3.324-2.655-5.229-3.479C41.699,20.701,42.436,18.834,42.886,17.003z     M28.92,16.77c0.023,1.463,0.153,3.215,0.625,4.908c-1.583,0.451-3.1,1.165-4.532,2.157c-0.525-0.207-1.042-0.38-1.558-0.544    C24.517,20.674,26.305,18.53,28.92,16.77z M17.212,35.052c0.569,0.487,1.979,0.519,3.122,0.519    c8.891,0,17.312-10.871,15.594-13.591c3.715,0.484,7.063,2.111,9.773,4.812c0.135,0.134,0.364,0.14,0.503-0.009    c3.783-4.054,10.583-3.233,14.376-0.165c-2.823,2.563-7.628,3.801-11.84,2.959c-0.307-0.059-0.529,0.276-0.362,0.534    c3.14,4.833,4.921,11.728,3.935,19.572c-2.64-2.634-6.347-4.596-10.556-5.924c0.147-1.08,0.174-2.053,0.147-3.067    c-0.547,0.409-1.216-0.012-1.216-0.603c0-0.553,0.593-0.978,1.147-0.649c-0.558-6.135-2.771-2.616-2.155,3.725    c-5.301-1.368-11.724-1.922-17.552-1.263c0.297-0.75,0.498-1.375,0.687-2.163c-0.541,0.324-1.127-0.089-1.127-0.634    c0-0.707,0.893-1.035,1.339-0.443c0.808-5.175-2.5-1.376-3.148,3.56c-1.816,0.31-3.737,0.776-5.583,1.471    C14.731,41.782,15.621,38.522,17.212,35.052z M37.388,78.304c-2.068-1.218-4.644-1.186-6.896-0.447    c-0.795-1.629-1.048-3.711-1.103-5.349c2.574,0.219,4.246,0.239,5.919,0.196c0.847,0.796,1.859,1.465,3.059,1.999    C38.129,76.218,37.81,77.409,37.388,78.304z M36.339,72.665c3.25-0.157,6.485-0.642,9.382-1.529    c-0.06,1.489-0.106,2.682,0.112,4.462C41.577,75.321,38.456,74.357,36.339,72.665z M8.627,65.087    c-5.497-6.184-6.56-22.764,18.419-22.764c9.932,0,28.715,3.565,28.715,17.06C55.762,76.922,16.114,73.511,8.627,65.087z     M64.106,77.905c-1.429-0.512-3.319-0.599-4.508,0.22c-0.36-0.976-0.294-1.865-0.229-2.865c0.863-0.149,1.778-0.323,2.723-0.522    c0.719,0.758,1.583,1.362,2.504,1.817C64.452,77.066,64.29,77.519,64.106,77.905z M62.912,74.559    c1.692-0.378,3.436-0.839,5.082-1.395c0.308,1.352,0.712,2.652,1.231,3.805C66.976,76.969,64.527,76.067,62.912,74.559z     M84.992,59.102c-1.342,6.929-4.025,14.79-6.871,18.824c-2.284-0.453-4.668,0.02-6.405,1.513    c-2.987-2.813-3.866-9.953-3.866-14.146c0-0.193-0.156-0.35-0.35-0.35s-0.35,0.156-0.35,0.35c0,2.092,0.193,4.69,0.696,7.184    c-3.472,1.179-7.411,1.93-10.296,2.369c0.225-1.503,0.311-2.863,0.311-3.772c0-0.481,0.091-1.005-0.374-1.005    c-0.44,0.016-0.325,0.553-0.325,1.005c0,1.685-0.405,6.327-1.96,9.431c-1.889-0.796-5.315-1.237-7.147,0.221    c-1.731-3.2-1.751-6.888-1.628-9.818c6.242-2.099,10.549-6.091,9.982-12.708c10.854-2.357,7.199-26.744,2.833-29.755    c0.378-0.227,2.225-1.416,2.212-1.853c-0.014-0.443-2.016-1.584-2.423-1.795c1.496-0.126,3.152-0.117,5.26,0.178    c11.728,10.143,6.256,35.384,17.087,35.384C82.768,60.358,84.124,59.935,84.992,59.102z M86.184,24.165    c0.398,2.855,4.126,8.894-2.158,11.667c0.051-0.838-0.521-1.662-1.188-1.961c3.845-1.521,3.906-5.075,2.235-9.008    c-0.43-1.012-0.836-1.968-0.836-3.071c0-2.252,1.753-3.95,4.076-3.95c1.566,0,4.589,1.855,6.041,2.747l0.151,0.161    C92.111,26.013,84.928,22.844,86.184,24.165z"/></g><path d="M33.344,80.547c0.256,0.042,0.517,0.063,0.778,0.063c0.806,0,1.616-0.205,2.3-0.642"/></g><text x="0" y="115" fill="#000000" font-size="5px" font-weight="bold" font-family="'Helvetica Neue', Helvetica, Arial-Unicode, Arial, Sans-serif">Created by Quang Khuê</text><text x="0" y="120" fill="#000000" font-size="5px" font-weight="bold" font-family="'Helvetica Neue', Helvetica, Arial-Unicode, Arial, Sans-serif">from the Noun Project</text></svg>